<svg version="1.0" xmlns="http://www.w3.org/2000/svg" width="100.000000pt" height="40.000000pt" viewBox="0 0 150.000000 40.000000" preserveAspectRatio="xMidYMid meet">

<g transform="translate(0.000000,54.000000) scale(0.100000,-0.100000)" fill="#000000" stroke="none">
<path d="M555 412 c-28 -6 -45 -22 -45 -42 0 -33 55 -40 90 -12 36 29 7 65&#10;-45 54z"/>
<path d="M912 385 c-27 -34 -46 -126 -38 -184 8 -55 17 -65 50 -57 20 5 29 17&#10;39 53 8 26 21 51 30 57 24 16 47 -10 47 -55 0 -60 60 -76 81 -22 33 87 -29&#10;172 -105 143 -24 -9 -25 -8 -28 38 -3 42 -6 47 -29 50 -19 2 -33 -4 -47 -23z"/>
<path d="M1796 400 c-56 -17 -81 -61 -56 -100 5 -8 28 -24 52 -35 58 -27 57&#10;-50 -2 -50 -53 -1 -70 -9 -70 -35 0 -37 118 -54 185 -26 75 32 67 99 -17 142&#10;-55 28 -58 49 -7 50 55 1 59 3 59 24 0 35 -74 50 -144 30z"/>
<path d="M96 377 c-17 -24 -26 -193 -12 -215 9 -15 58 -16 74 0 15 15 16 191&#10;2 219 -14 26 -46 24 -64 -4z"/>
<path d="M240 382 c-23 -11 -35 -24 -35 -37 0 -16 8 -21 41 -23 l42 -3 8 -87&#10;c9 -84 10 -87 35 -90 36 -4 49 16 61 97 10 68 12 71 37 71 60 0 81 52 31 77&#10;-38 19 -178 17 -220 -5z"/>
<path d="M2055 366 c-11 -26 -22 -35 -42 -38 -20 -2 -29 -9 -31 -25 -3 -18 3&#10;-24 30 -31 30 -8 33 -12 39 -56 3 -26 12 -52 20 -57 20 -13 93 -11 107 3 22&#10;22 13 38 -19 38 -28 0 -30 2 -27 32 3 28 8 34 33 38 42 7 41 41 -1 53 -22 6&#10;-33 17 -40 40 -14 48 -50 49 -69 3z"/>
<path d="M705 353 c-31 -8 -55 -34 -55 -58 0 -28 14 -40 68 -56 58 -17 48 -35&#10;-17 -31 -40 2 -53 -1 -58 -13 -10 -26 20 -46 78 -51 70 -7 122 18 127 59 4 37&#10;-11 54 -59 67 -51 14 -50 30 1 30 42 0 63 21 42 42 -12 12 -96 20 -127 11z"/>
<path d="M2276 341 c-37 -24 -55 -57 -56 -96 -1 -119 197 -144 259 -33 23 39&#10;5 96 -38 125 -44 30 -123 31 -165 4z m108 -57 c32 -32 8 -68 -41 -62 -20 2&#10;-29 9 -31 26 -7 46 40 69 72 36z"/>
<path d="M2603 349 c-46 -13 -73 -53 -73 -105 0 -56 17 -93 47 -100 38 -10 56&#10;13 49 63 -8 64 -2 73 55 73 36 0 51 4 56 16 14 38 -69 72 -134 53z"/>
<path d="M1196 316 c-28 -26 -36 -41 -36 -69 0 -78 39 -112 125 -111 59 0 108&#10;25 103 52 -3 14 -16 17 -72 17 -80 0 -102 19 -32 27 59 7 96 31 96 63 0 35&#10;-35 55 -97 55 -45 0 -56 -4 -87 -34z m104 -16 c13 -9 12 -12 -4 -25 -11 -8&#10;-25 -15 -32 -15 -22 0 -28 23 -9 37 22 16 25 16 45 3z"/>
<path d="M2795 319 c-31 -28 -35 -36 -35 -80 0 -39 5 -55 23 -73 57 -56 227&#10;-31 203 29 -5 13 -19 16 -72 13 -47 -2 -68 1 -71 10 -3 7 4 12 19 12 43 0 98&#10;21 108 41 25 45 -16 79 -95 79 -35 0 -52 -6 -80 -31z m100 -45 c-25 -18 -55&#10;-18 -55 1 0 22 31 35 54 23 19 -10 19 -11 1 -24z"/>
<path d="M1422 328 c-17 -17 -15 -33 7 -77 28 -53 94 -111 129 -111 50 0 132&#10;102 132 164 0 19 -7 27 -25 32 -32 8 -50 -7 -81 -68 -13 -26 -26 -48 -29 -48&#10;-3 0 -14 19 -26 43 -12 23 -28 50 -37 60 -17 20 -53 22 -70 5z"/>
<path d="M517 302 c-9 -9 -19 -40 -22 -67 -6 -42 -4 -55 13 -75 17 -22 23 -23&#10;46 -12 15 6 31 23 36 38 14 35 12 108 -2 122 -17 17 -52 15 -71 -6z"/>
</g>
</svg>